<?xml version="1.0" standalone="no"?>
<!DOCTYPE svg PUBLIC "-//W3C//DTD SVG 20010904//EN"
 "http://www.w3.org/TR/2001/REC-SVG-20010904/DTD/svg10.dtd">
<svg version="1.0" xmlns="http://www.w3.org/2000/svg"
 width="500.000000pt" height="500.000000pt" viewBox="0 0 500.000000 500.000000"
 preserveAspectRatio="xMidYMid meet">
<metadata>
Created by potrace 1.11, written by Peter Selinger 2001-2013
</metadata>
<g transform="translate(0.000000,500.000000) scale(0.100000,-0.100000)"
fill="#000000" stroke="none">
<path d="M2399 3372 c-3 -15 -2 -42 1 -59 l5 -33 44 26 45 25 48 -26 48 -26 0
61 0 62 -47 -28 -47 -27 -47 26 -47 27 -3 -28z"/>
<path d="M2110 2960 l0 -360 99 0 99 0 1 138 c0 75 0 155 1 177 l0 40 45 -83
c78 -146 117 -217 131 -236 13 -19 13 -19 20 0 4 10 30 60 57 109 27 50 64
117 81 150 l31 60 3 -177 2 -178 100 0 100 0 0 360 0 360 -109 0 c-104 0 -110
-1 -118 -22 -4 -13 -41 -88 -81 -167 l-74 -144 -16 26 c-9 14 -48 89 -87 166
l-70 141 -107 0 -108 0 0 -360z"/>
<path d="M2477 3244 c-4 -4 -7 -16 -7 -26 0 -14 6 -19 23 -16 14 2 22 10 22
23 0 20 -25 32 -38 19z"/>
<path d="M2477 3133 c-14 -14 -6 -41 14 -46 22 -6 35 13 25 38 -6 15 -28 20
-39 8z"/>
<path d="M2271 2469 c-15 -6 -21 -15 -17 -24 4 -12 -7 -15 -69 -15 l-75 0 0
-61 c0 -50 3 -60 15 -56 8 4 17 2 20 -3 4 -6 -1 -10 -9 -10 -9 0 -16 -3 -16
-8 0 -16 32 -52 41 -47 5 4 9 -5 9 -19 0 -24 3 -26 45 -26 43 0 45 -1 45 -30
l0 -30 -70 0 -70 0 0 -30 0 -30 185 0 185 0 0 30 0 30 -80 0 -80 0 0 30 c0 29
1 30 50 30 44 0 50 3 50 21 0 11 14 32 31 46 l31 26 -24 13 -23 13 23 1 c20 0
22 5 22 55 l0 55 -75 0 c-71 0 -76 1 -85 25 -10 27 -21 29 -59 14z m159 -120
c0 -16 -4 -19 -22 -13 -13 3 -30 10 -38 15 -10 5 -23 0 -38 -14 l-23 -22 58
-27 58 -27 -115 -1 -115 0 43 26 c23 14 42 29 42 33 0 4 -11 13 -24 21 -20 10
-28 10 -47 -4 -32 -22 -39 -20 -39 9 l0 25 130 -1 c124 0 130 -1 130 -20z"/>
<path d="M2600 2455 c0 -10 -11 -15 -35 -15 -31 0 -35 -3 -35 -25 0 -20 5 -25
27 -25 l27 0 -32 -33 -32 -33 21 -20 c21 -19 21 -19 40 5 l19 23 0 -26 c0 -22
4 -26 30 -26 26 0 30 4 30 26 0 23 2 25 16 13 13 -10 17 -10 25 2 8 11 12 10
28 -10 l18 -23 21 23 22 23 0 -27 c0 -23 4 -27 30 -27 26 0 30 4 30 28 l1 27
20 -24 20 -24 22 21 22 22 -28 24 c-32 28 -34 36 -7 36 15 0 20 7 20 25 0 22
-4 25 -35 25 -24 0 -35 5 -35 15 0 10 -10 15 -30 15 -20 0 -30 -5 -30 -15 0
-10 -10 -15 -30 -15 -25 0 -30 -4 -30 -25 0 -19 5 -25 21 -25 18 0 20 -2 9
-16 -16 -19 -56 -41 -46 -25 4 5 -6 17 -21 25 l-28 15 28 1 c22 0 27 4 27 25
0 21 -5 25 -30 25 -20 0 -30 5 -30 15 0 10 -10 15 -30 15 -20 0 -30 -5 -30
-15z"/>
<path d="M2669 2283 c-8 -9 -40 -28 -71 -43 l-57 -27 25 -22 24 -21 40 20 c26
13 58 20 97 20 l58 -1 -23 -19 c-22 -18 -26 -18 -59 -5 -33 14 -39 14 -61 -1
l-25 -17 24 -12 c22 -13 21 -13 -26 -20 -77 -10 -78 -11 -59 -41 15 -22 22
-25 58 -21 93 12 215 76 252 132 25 39 5 55 -68 55 -33 0 -57 4 -54 9 3 5 -8
14 -26 20 -38 14 -33 14 -49 -6z"/>
<path d="M2112 1870 c0 -42 3 -55 7 -36 l6 29 20 -27 c11 -14 23 -26 28 -26 4
0 -4 15 -18 34 l-26 34 28 26 c15 14 23 26 17 26 -6 0 -19 -9 -30 -21 l-19
-21 -6 24 c-4 13 -7 -4 -7 -42z"/>
<path d="M2520 1903 c-1 -10 -3 -36 -5 -58 l-4 -40 12 44 12 43 19 -43 19 -42
23 44 c23 43 23 43 24 14 0 -16 5 -37 10 -45 6 -10 8 1 4 35 -8 67 -18 74 -38
26 -9 -23 -18 -41 -21 -41 -2 0 -14 18 -25 40 -22 44 -30 49 -30 23z"/>
<path d="M2212 1888 c-7 -7 -12 -21 -12 -33 0 -44 60 -63 80 -26 14 27 13 37
-6 55 -18 19 -45 21 -62 4z m57 -12 c13 -16 -1 -56 -19 -56 -36 0 -53 33 -28
58 16 16 33 15 47 -2z"/>
<path d="M2312 1850 c1 -35 2 -38 5 -13 4 32 28 61 40 50 3 -4 9 -24 13 -44
l8 -38 1 35 c1 46 -8 59 -42 57 -25 -2 -27 -5 -25 -47z"/>
<path d="M2418 1889 c-22 -12 -23 -52 -3 -69 9 -7 26 -10 42 -5 27 6 27 5 11
-11 -15 -15 -21 -16 -45 -5 -27 12 -27 12 -11 -5 14 -14 23 -16 45 -8 25 8 28
15 31 60 3 48 2 50 -25 52 -15 1 -36 -3 -45 -9z m56 -21 c15 -24 -13 -53 -43
-43 -23 7 -28 34 -9 53 16 16 38 12 52 -10z"/>
<path d="M2672 1888 c-17 -17 -15 -53 3 -68 16 -13 65 -6 65 10 0 6 -8 5 -19
-2 -15 -9 -23 -9 -35 1 -26 22 -19 31 24 31 38 0 40 2 30 20 -12 22 -49 27
-68 8z m53 -8 c4 -6 -7 -10 -25 -10 -18 0 -29 4 -25 10 3 6 15 10 25 10 10 0
22 -4 25 -10z"/>
<path d="M2761 1851 c1 -25 3 -37 6 -26 2 11 6 30 9 43 8 39 38 23 45 -23 l6
-40 2 43 c0 23 -2 43 -6 44 -5 0 -20 2 -35 3 -27 2 -28 0 -27 -44z"/>
<path d="M2868 1889 c-22 -12 -23 -52 -3 -69 8 -7 25 -10 40 -6 19 5 23 3 19
-9 -7 -18 -45 -20 -64 -2 -12 10 -12 9 -1 -5 18 -24 58 -23 71 1 5 11 10 37
10 58 0 34 -3 38 -28 40 -15 1 -35 -3 -44 -8z m56 -21 c15 -24 -13 -53 -43
-43 -23 7 -28 34 -9 53 16 16 38 12 52 -10z"/>
</g>
</svg>
